HIERARCHY
ROOT Hips
{
	OFFSET 0.00 0.00 0.00
	CHANNELS 6 Xposition Yposition Zposition Xrotation Yrotation Zrotation
	JOINT Spine
	{
		OFFSET 0.00000 1.75157 2.62736
		CHANNELS 3 Xrotation Yrotation Zrotation
		JOINT Spine1
		{
			OFFSET 0.00000 0.60831 3.44992
			CHANNELS 3 Xrotation Yrotation Zrotation
			JOINT Spine2
			{
				OFFSET 0.00000 0.30532 3.48981
				CHANNELS 3 Xrotation Yrotation Zrotation
				JOINT Spine3
				{
					OFFSET 0.00000 0.00000 3.50314
					CHANNELS 3 Xrotation Yrotation Zrotation
					JOINT Neck
					{
						OFFSET 0.00000 -1.31368 9.19575
						CHANNELS 3 Xrotation Yrotation Zrotation
						JOINT Head
						{
							OFFSET 0.00000 -0.83643 4.74364
							CHANNELS 3 Xrotation Yrotation Zrotation
							End Site
							{
								OFFSET 0.00000 0.00000 5.67071
							}
						}
					}
					JOINT RightShoulder
					{
						OFFSET -1.05974 -1.76624 5.72262
						CHANNELS 3 Xrotation Yrotation Zrotation
						JOINT RightArm
						{
							OFFSET -5.26340 -0.00000 0.00000
							CHANNELS 3 Xrotation Yrotation Zrotation
							JOINT RightForeArm
							{
								OFFSET -10.14667 -0.00000 0.00000
								CHANNELS 3 Xrotation Yrotation Zrotation
								JOINT RightHand
								{
									OFFSET -8.53343 -0.00000 0.00000
									CHANNELS 3 Xrotation Yrotation Zrotation
									JOINT RightHandEnd
									{
										OFFSET -2.46135 -0.00000 0.00000
										CHANNELS 3 Xrotation Yrotation Zrotation
										End Site
										{
											OFFSET -2.46135 -0.00000 0.00000
										}
									}
									JOINT RightHandThumb1
									{
										OFFSET -0.98454 -1.64090 -0.65636
										CHANNELS 3 Xrotation Yrotation Zrotation
										End Site
										{
											OFFSET -2.37748 -0.63704 0.00000
										}
									}
								}
							}
						}
					}
					JOINT LeftShoulder
					{
						OFFSET 1.05974 -1.76624 5.72262
						CHANNELS 3 Xrotation Yrotation Zrotation
						JOINT LeftArm
						{
							OFFSET 5.26340 0.00000 0.00000
							CHANNELS 3 Xrotation Yrotation Zrotation
							JOINT LeftForeArm
							{
								OFFSET 10.14667 0.00000 0.00000
								CHANNELS 3 Xrotation Yrotation Zrotation
								JOINT LeftHand
								{
									OFFSET 8.53343 0.00000 0.00000
									CHANNELS 3 Xrotation Yrotation Zrotation
									JOINT LeftHandEnd
									{
										OFFSET 2.46135 0.00000 0.00000
										CHANNELS 3 Xrotation Yrotation Zrotation
										End Site
										{
											OFFSET 2.46135 0.00000 0.00000
										}
									}
									JOINT LeftHandThumb1
									{
										OFFSET 0.98454 -1.64090 -0.65636
										CHANNELS 3 Xrotation Yrotation Zrotation
										End Site
										{
											OFFSET 2.37748 -0.63704 0.00000
										}
									}
								}
							}
						}
					}
				}
			}
		}
	}
	JOINT RightUpLeg
	{
		OFFSET -3.14391 0.00000 -0.91845
		CHANNELS 3 Xrotation Yrotation Zrotation
		JOINT RightLeg
		{
			OFFSET 0.00000 0.00000 -14.43197
			CHANNELS 3 Xrotation Yrotation Zrotation
			JOINT RightFoot
			{
				OFFSET 0.00000 0.00000 -14.31693
				CHANNELS 3 Xrotation Yrotation Zrotation
				JOINT RightToeBase
				{
					OFFSET 0.00000 -4.51635 -1.64382
					CHANNELS 3 Xrotation Yrotation Zrotation
					End Site
					{
						OFFSET 0.00000 -2.54339 0.00000
					}
				}
			}
		}
	}
	JOINT LeftUpLeg
	{
		OFFSET 3.14391 0.00000 -0.91845
		CHANNELS 3 Xrotation Yrotation Zrotation
		JOINT LeftLeg
		{
			OFFSET 0.00000 0.00000 -14.43197
			CHANNELS 3 Xrotation Yrotation Zrotation
			JOINT LeftFoot
			{
				OFFSET 0.00000 0.00000 -14.31693
				CHANNELS 3 Xrotation Yrotation Zrotation
				JOINT LeftToeBase
				{
					OFFSET 0.00000 -4.51635 -1.64382
					CHANNELS 3 Xrotation Yrotation Zrotation
					End Site
					{
						OFFSET 0.00000 -2.54339 0.00000
					}
				}
			}
		}
	}
}
MOTION
Frames: 7
Frame Time: 0.008342
 1.5286 0.9047 31.7299 -1.6231 -1.5849 -179.1096 -1.0637 0.0249 0.1569 -0.8915 -0.3462 -0.0777 0.8474 -0.1709 -1.6969 0.2320 0.2919 -0.3935 0.0499 -1.4535 -1.8576 -3.7266 -0.7680 -0.4409 -1.1449 10.3352 1.0555 -8.0690 -5.5364 -4.6081 0.0000 0.0000 2.7316 1.9225 7.2030 -8.1089 0.0000 -0.0000 0.0000 -0.0000 0.0000 0.0000 -1.3579 -13.6394 -2.1017 -2.0698 9.9849 15.9503 0.0000 -0.0000 -9.3748 0.6195 -1.9180 2.1531 0.0000 -0.0000 -0.0000 -0.0000 -0.0000 0.0000 1.5518 2.2885 -9.2602 -3.3890 0.0000 -0.0000 -1.8407 -7.1893 -10.1255 -0.0199 -0.0000 0.0000 0.2072 -6.3902 27.6865 0.6750 0.0000 -0.0000 0.4470 6.7499 3.4209 -0.1477 0.0000 -0.0000
 1.5245 0.9041 31.7299 -1.6232 -1.5818 -179.1256 -1.0580 0.0289 0.1572 -0.8890 -0.3468 -0.0780 0.8552 -0.1768 -1.6979 0.2317 0.2915 -0.3893 0.0069 -1.4736 -1.8642 -3.8178 -0.7732 -0.4230 -1.1475 10.3678 1.0693 -8.0942 -5.5710 -4.6366 -0.0000 -0.0000 2.7246 1.9409 7.1903 -8.1369 0.0000 0.0000 0.0000 -0.0000 -0.0000 -0.0000 -1.3408 -13.6440 -2.1014 -2.0488 10.0210 15.9633 -0.0000 0.0000 -9.3518 0.6751 -1.9717 2.1975 -0.0000 -0.0000 0.0000 -0.0000 -0.0000 0.0000 1.5456 2.2998 -9.2567 -3.3851 -0.0000 -0.0000 -1.8348 -7.1953 -10.1163 -0.0162 0.0000 0.0000 0.2054 -6.3807 27.6869 0.6831 0.0000 -0.0000 0.4380 6.7426 3.4348 -0.1470 0.0000 -0.0000
 1.5191 0.9029 31.7300 -1.6292 -1.5771 -179.1477 -1.0560 0.0328 0.1578 -0.8853 -0.3439 -0.0773 0.8639 -0.1868 -1.6980 0.2314 0.2911 -0.3844 -0.0476 -1.5022 -1.8713 -3.9209 -0.7766 -0.3976 -1.1450 10.4066 1.0773 -8.1337 -5.6130 -4.6587 -0.0000 0.0000 2.7086 1.9683 7.1829 -8.1784 0.0000 -0.0000 0.0000 -0.0000 0.0000 -0.0000 -1.3217 -13.6492 -2.1012 -2.0361 10.0642 15.9817 -0.0000 0.0000 -9.3259 0.7237 -2.0290 2.2487 -0.0000 0.0000 0.0000 0.0000 0.0000 -0.0000 1.5292 2.3155 -9.2541 -3.3773 -0.0000 -0.0000 -1.8276 -7.2032 -10.1009 -0.0108 0.0000 -0.0000 0.1957 -6.3678 27.6868 0.6954 0.0000 -0.0000 0.4251 6.7306 3.4544 -0.1443 0.0000 0.0000
 1.5125 0.9020 31.7301 -1.6299 -1.5712 -179.1747 -1.0471 0.0385 0.1585 -0.8817 -0.3448 -0.0773 0.8732 -0.1939 -1.6976 0.2305 0.2897 -0.3786 -0.1082 -1.5410 -1.8772 -4.0304 -0.7793 -0.3630 -1.1459 10.4536 1.0946 -8.1760 -5.6635 -4.6936 -0.0000 -0.0000 2.6929 2.0051 7.1857 -8.2374 -0.0000 -0.0000 0.0000 -0.0000 -0.0000 -0.0000 -1.2996 -13.6558 -2.1005 -2.0352 10.1118 16.0063 0.0000 -0.0000 -9.2980 0.7541 -2.0840 2.3014 0.0000 0.0000 0.0000 -0.0000 0.0000 0.0000 1.5189 2.3346 -9.2504 -3.3713 -0.0000 0.0000 -1.8186 -7.2137 -10.0824 -0.0043 -0.0000 -0.0000 0.1927 -6.3513 27.6862 0.7083 -0.0000 0.0000 0.4080 6.7147 3.4789 -0.1388 0.0000 0.0000
 1.5047 0.9005 31.7302 -1.6373 -1.5639 -179.2073 -1.0431 0.0438 0.1600 -0.8765 -0.3430 -0.0767 0.8815 -0.2033 -1.6959 0.2295 0.2888 -0.3729 -0.1749 -1.5891 -1.8818 -4.1363 -0.7796 -0.3192 -1.1431 10.5036 1.1087 -8.2270 -5.7184 -4.7236 -0.0000 -0.0000 2.6709 2.0499 7.2063 -8.3134 -0.0000 0.0000 -0.0000 0.0000 -0.0000 -0.0000 -1.2779 -13.6619 -2.0996 -2.0492 10.1617 16.0361 -0.0000 0.0000 -9.2701 0.7650 -2.1365 2.3552 -0.0000 0.0000 -0.0000 -0.0000 0.0000 -0.0000 1.4982 2.3578 -9.2471 -3.3619 0.0000 0.0000 -1.8087 -7.2258 -10.0583 0.0038 0.0000 0.0000 0.1811 -6.3318 27.6840 0.7255 -0.0000 0.0000 0.3861 6.6939 3.5097 -0.1303 0.0000 0.0000
 1.4958 0.8988 31.7302 -1.6449 -1.5554 -179.2445 -1.0372 0.0496 0.1614 -0.8726 -0.3432 -0.0766 0.8894 -0.2103 -1.6923 0.2280 0.2867 -0.3663 -0.2420 -1.6453 -1.8834 -4.2307 -0.7787 -0.2680 -1.1422 10.5563 1.1271 -8.2776 -5.7756 -4.7580 0.0000 -0.0000 2.6483 2.1039 7.2485 -8.4081 0.0000 -0.0000 0.0000 -0.0000 0.0000 -0.0000 -1.2560 -13.6667 -2.0987 -2.0796 10.2111 16.0701 -0.0000 0.0000 -9.2432 0.7504 -2.1835 2.4047 -0.0000 0.0000 0.0000 0.0000 0.0000 -0.0000 1.4763 2.3842 -9.2436 -3.3521 0.0000 -0.0000 -1.7979 -7.2399 -10.0301 0.0119 -0.0000 0.0000 0.1690 -6.3096 27.6798 0.7450 0.0000 0.0000 0.3595 6.6690 3.5468 -0.1192 0.0000 0.0000
 1.4861 0.8970 31.7303 -1.6554 -1.5451 -179.2855 -1.0329 0.0559 0.1633 -0.8694 -0.3438 -0.0764 0.8959 -0.2161 -1.6869 0.2262 0.2841 -0.3596 -0.3066 -1.7083 -1.8820 -4.3032 -0.7767 -0.2094 -1.1413 10.6075 1.1459 -8.3268 -5.8308 -4.7907 -0.0000 -0.0000 2.6243 2.1634 7.3160 -8.5200 -0.0000 0.0000 -0.0000 0.0000 -0.0000 -0.0000 -1.2383 -13.6690 -2.0999 -2.1235 10.2577 16.1084 -0.0000 0.0000 -9.2194 0.7112 -2.2250 2.4472 0.0000 -0.0000 -0.0000 0.0000 -0.0000 -0.0000 1.4504 2.4141 -9.2408 -3.3419 0.0000 0.0000 -1.7866 -7.2555 -9.9975 0.0207 -0.0000 -0.0000 0.1535 -6.2842 27.6720 0.7668 -0.0000 0.0000 0.3290 6.6411 3.5907 -0.1051 -0.0000 0.0000
